<svg width="270" height="82" fill="none" xmlns="http://www.w3.org/2000/svg">
    <path d="M125.729 35.712c-3.101-.658-5.435-1.315-6.991-2.053.032-.07.074-.131.105-.212.789-1.84 1.188-3.873 1.188-6.107 0-1.598-.284-3.074-.841-4.429a10.287 10.287 0 00-2.396-3.539c-1.041-1-2.292-1.78-3.763-2.335-1.472-.556-3.122-.84-4.951-.84H95.57c-1.408-3.457-2.963-7.734-4.719-12.972-.094-.293-.557-.172-.483.121 3.532 15.308 2.544 19.93-6.843 16.815-1.377-.455-2.302 1.365-1.073 2.123 2.04 1.254-2.743 2.033-1.503 2.407 1.073.323 2.092.819 2.838 1.617 7.569 8.13 2.954 12.589-16.43 22.437-.272.141-.094.535.2.444 11.7-3.69 16.809-2.234 17.082 2.74l-1.356 6.188h8.157l.042-.171c.042-.01.073-.03.084-.071 3.626-10.02 4.541-18.362 5.603-4.944.02.283.441.313.504.04 1.766-8.21-.2-17.219 17.912 4.004.2.232.578-.03.41-.283-9.87-14.712-9.471-16.855 6.17-9.99.683.303 1.198-.637.568-1.021-5.687-3.407-8.304-5.571-8.042-6.855.274-.213.558-.435.82-.668.105-.1.2-.202.305-.303 1.598-.576 4.867-.708 9.744-.536.999.05 1.188-1.395.169-1.608zM104.716 23.74c.462-.364.788-.9 1.093-1.648 1.23 1.75 2.334 1.507 5.624-.03-.767 1.628-1.02 2.83-.315 4.054.021.05.063.091.084.142.315.495.798.99 1.45 1.527-6.16 2.71-6.906 2.335-5.602-.84-2.565 2.296-4.93 1.82-7.895-3.205h5.561zM186.243 15.44L170.276 42.02c-2.701-9.646-.977-13.7 11.227-28.806-10.754 10.647-10.365 9.464.883-8.453-11.9 16.37-12.288 15.945-2.765-3.154C167.974 19.352 165.083 16.47 164.936 0c-2.859 18.958-3.164 24.165-7.368 15.834 1.135 14.762-.936 37.056-8.62 49.23a158.881 158.881 0 013.763-5.197c.841-1.112 2.187-1.76 3.627-1.76h3.774c.147 1.264.252 2.822.367 4.621.4-1.658.757-3.185 1.094-4.62h8.556l10.543-18.13-4.204 18.13h8.367l9.46-42.658h-8.052v-.01zm-23.577 37.926c2.628-11.264 3.321-13.225 7.295-10.809l-6.496 10.809h-.799zM218.756 64.589c-.011.05-.032.101-.042.151 0 .557.021.395.042-.151z"
          fill="#fff"/>
    <path d="M259.405 43.083l-.589-23.245c2.933-2.164 6.601-4.712 11.184-7.745-4.352 2.457-8.062 4.459-11.237 6.036l-.052-1.941h-13.518c1.293-3.57 3.973-8.645 7.747-15.207-21.065 28.988-23.63 54.356-30.82 53.861-.567-.475-.599-2.063-.242-4.5l2.765-12.486c2.575-10.091 6.296-23.347 9.029-36.188a592.952 592.952 0 01-2.796 7.927c-1.44 3.954-5.308 6.603-9.66 6.603l-2.039 9.211c-2.502-.404-5.529-2.497-9.545-6.3 6.297 7.523 4.72 11.76-4.583 14.227h-.084l3.795-17.138h-8.22l-9.219 41.94h8.157l3.795-17.25h9.544c3.427 4.268-.798 17.574-13.129 25.005 13.024-5.025 16.094-13.174 14.832-2.426 4.121-10.678 4.3-1.214 4.236 1.132 3.848-13.64 5.887-6.41 14.265 17.401-1.64-9.292-2.565-16.47-2.292-21.637.063-1.244 1.114-2.225 2.397-2.225l3.363-7.573c2.387-.596 5.603-.283 9.797.92-1.398-.89-2.575-1.658-3.521-2.335h8.735l.126 8.988h8.157l-.357-14.206c2.796-.09 5.886-.192 9.344-.323a383.182 383.182 0 01-9.365-.526zm-5.74-7.947c-.073 2.275.925 4.752 2.87 5.712-1.356.567-3.153 1.062-5.151 1.507-10.921-1.385-8.829-3.498 2.281-7.22zm3.837-12.932c-4.078 5.844-3.994 7.037-.389 6.531-4.12 1.962-4.299 2.306-.767 2.053-1.619.546-2.47 2.133-2.649 3.913-14.422 2.892-1.714-3.458-1.714-3.458s-9.807 2.022 2.292-7.886c-.2 1.739.536 1.102 3.227-1.153zm-2.155-4.53c-.158.86-.315 1.618-.452 2.295-6.181 2.76-9.429 3.185-10.312 1.345 2.208.768 4.678-1.112 10.764-3.64zM43.76 23.74h6.16v-6.996c3.479-1.932 8.261-4.024 13.99-6.43-20.234 7.653-27.73 6.167-23.062.656-8.714 6.097-12.52 7.402-29.233-.86C23.335 18.019 20.53 20.203 0 24.176c22.831-2.113 23.262-1.314 2.418 4.419 16.524-3.185 22.904-4.207 27.067-1.952l-6.959 31.506h8.22l7.274-32.911c2.481.364 6.307 1.577 12.089 3.549-3.858-1.78-5.876-3.418-6.35-5.046z"
          fill="#fff"/>
    <path d="M89.674 16.198h-8.388c.851-1.73 1.829-3.68 2.953-5.875-10.837 15.581-15.178 19.575-18.836 12.861 1.145 6.33 1.703 9.788 1.345 13.023h-.494l-4.73-20.01H52.81l6.853 27.2h3.47c-1.788 1.98-4.72 5.671-8.946 11.313 10.648-12.042 11.1-11.779 2.996 3.307 8.535-14.46-.578 2.497-7.653 18.634 7.537-15.874 20.14-26.42 14.611-10.323 1.85-5.096 3.143-8.675 4.152-11.365l21.38-38.037v-.728zM156.391 41.313c-7.916-4.044-7.873-5.803-.663-9.555-8.598 2.144-9.103 1.81-3.069-2.416-7.432 3.326-8.325 2.75-6.013-3.893-4.162 3.964-7.221 3.65-12.33-2.366h21.77V15.53h-33.49v7.553h3.175l-7.253 35.045h16.335c2.491 0 4.751-.364 6.79-1.082 2.039-.718 3.774-1.74 5.235-3.054a13.465 13.465 0 003.363-4.732c.789-1.84 1.188-3.872 1.188-6.107 0-.798-.073-1.567-.21-2.305 1.303-.01 3.006.162 5.172.465zm-11.374 8.928c-1.177-1.102-2.186-1.941-3.111-2.578-.284.404-.61.778-1.02 1.122-1.408 1.193-3.174 1.8-5.298 1.8h-7.6l2.387-10.839c.262-.06.504-.121.746-.182h1.556c-.568-.98-1.293-2.053-2.145-3.286 6.192 3.478 9.04 3.67 13.203-.162-2.302 4.51-1.808 5.43 3.385 5.612-5.288.97-5.372 1.274-.148 2.406-5.035-.162-4.173.415 1.913 5.096-6.59-3.58-7.284-3.559-3.868 1.011z"
          fill="#fff"/>
</svg>