<svg width="74" height="31" fill="none" xmlns="http://www.w3.org/2000/svg"><mask id="a" fill="#fff"><path fill-rule="evenodd" clip-rule="evenodd" d="M15.5 0C6.94 0 0 6.94 0 15.5 0 24.06 6.94 31 15.5 31h43C67.06 31 74 24.06 74 15.5 74 6.94 67.06 0 58.5 0h-43zm5.175 14.881a.752.752 0 010 1.238l-5.554 3.757c-.48.325-1.121-.028-1.121-.618v-7.516c0-.59.64-.944 1.12-.618l5.555 3.757zm11.699 5.12h1.606l-3.6-4.782 3.622-3.946H32.37l-3.397 3.686h-.451v-3.686h-1.317V20h1.317v-3.912h.903L32.374 20zm2.322 0h.41c1.427 0 1.951-1.058 2.053-3.222l.103-2.225H39.4V20h1.248v-6.545h-4.568l-.115 2.897c-.08 2.02-.31 2.544-1.04 2.544h-.234L34.696 20zm8.901-1.786v-4.76H42.35V20h1.385l2.872-4.764V20h1.248v-6.545h-1.372l-2.885 4.76zM49.567 20h1.24v-5.446h2.851V20h1.249v-6.545h-5.34V20z"/></mask><path fill-rule="evenodd" clip-rule="evenodd" d="M15.5 0C6.94 0 0 6.94 0 15.5 0 24.06 6.94 31 15.5 31h43C67.06 31 74 24.06 74 15.5 74 6.94 67.06 0 58.5 0h-43zm5.175 14.881a.752.752 0 010 1.238l-5.554 3.757c-.48.325-1.121-.028-1.121-.618v-7.516c0-.59.64-.944 1.12-.618l5.555 3.757zm11.699 5.12h1.606l-3.6-4.782 3.622-3.946H32.37l-3.397 3.686h-.451v-3.686h-1.317V20h1.317v-3.912h.903L32.374 20zm2.322 0h.41c1.427 0 1.951-1.058 2.053-3.222l.103-2.225H39.4V20h1.248v-6.545h-4.568l-.115 2.897c-.08 2.02-.31 2.544-1.04 2.544h-.234L34.696 20zm8.901-1.786v-4.76H42.35V20h1.385l2.872-4.764V20h1.248v-6.545h-1.372l-2.885 4.76zM49.567 20h1.24v-5.446h2.851V20h1.249v-6.545h-5.34V20z" fill="#fff"/><path d="M20.675 16.119l-1.12-1.657 1.12 1.657zm0-1.238l-1.12 1.657 1.12-1.657zm-5.554 4.995l1.12 1.657-1.12-1.657zm0-8.752L14 12.78l1.12-1.656zM33.98 20v2h4.01l-2.413-3.203L33.98 20zm-1.607 0l-1.597 1.204.6.796h.997v-2zM30.38 15.22l-1.474-1.353-1.125 1.227 1.001 1.33 1.598-1.204zm3.622-3.946l1.473 1.352 3.078-3.352h-4.551v2zm-1.632 0v-2h-.877l-.594.645 1.47 1.355zm-3.397 3.686v2h.877l.594-.645-1.47-1.355zm-.451 0h-2v2h2v-2zm0-3.686h2v-2h-2v2zm-1.317 0v-2h-2v2h2zm0 8.727h-2v2h2v-2zm1.317 0v2h2v-2h-2zm0-3.912v-2h-2v2h2zm.903 0l1.597-1.204-.6-.796h-.997v2zM34.696 20l-2 .008.008 1.992h1.992v-2zm2.463-3.221l1.998.094v-.003l-1.998-.091zm.103-2.225v-2h-1.91l-.088 1.908 1.998.092zm2.139 0h2v-2h-2v2zm0 5.446h-2v2h2v-2zm1.248 0v2h2v-2h-2zm0-6.545h2v-2h-2v2zm-4.568 0v-2H34.16l-.076 1.92 1.998.08zm-.115 2.897l1.999.08-1.999-.08zm-1.274 2.544v-2h-2.008l.008 2.008 2-.008zm8.905-5.441h2v-2h-2v2zm0 4.76h-2v7.158l3.71-6.122-1.71-1.036zm-1.248-4.76v-2h-2v2h2zm0 6.545h-2v2h2v-2zm1.385 0v2h1.13l.583-.967L43.733 20zm2.872-4.764h2V8.045l-3.713 6.158 1.713 1.033zm0 4.764h-2v2h2v-2zm1.248 0v2h2v-2h-2zm0-6.545h2v-2h-2v2zm-1.372 0v-2h-1.126l-.584.963 1.71 1.037zM50.807 20v2h2v-2h-2zm-1.24 0h-2v2h2v-2zm1.24-5.446v-2h-2v2h2zm2.851 0h2v-2h-2v2zm0 5.446h-2v2h2v-2zm1.249 0v2h2v-2h-2zm0-6.545h2v-2h-2v2zm-5.34 0v-2h-2v2h2zM2 15.5C2 8.044 8.044 2 15.5 2v-4C5.835-2-2 5.835-2 15.5h4zM15.5 29C8.044 29 2 22.956 2 15.5h-4C-2 25.165 5.835 33 15.5 33v-4zm43 0h-43v4h43v-4zM72 15.5C72 22.956 65.956 29 58.5 29v4C68.165 33 76 25.165 76 15.5h-4zM58.5 2C65.956 2 72 8.044 72 15.5h4C76 5.835 68.165-2 58.5-2v4zm-43 0h43v-4h-43v4zm6.296 15.775c1.605-1.086 1.605-3.464 0-4.55l-2.241 3.313c-.74-.5-.74-1.576 0-2.076l2.24 3.313zm-5.554 3.758l5.554-3.758-2.241-3.313L14 18.22l2.242 3.313zM12 19.258c0 2.1 2.357 3.55 4.242 2.275L14 18.22c.924-.625 2 .117 2 1.038h-4zm0-7.516v7.516h4v-7.516h-4zm4.242-2.275C14.357 8.192 12 9.641 12 11.742h4c0 .92-1.076 1.663-2 1.038l2.242-3.313zm5.554 3.758l-5.554-3.758L14 12.78l5.555 3.758 2.24-3.313zM33.98 18h-1.606v4h1.606v-4zm-5.198-1.578l3.6 4.781 3.196-2.406-3.6-4.781-3.196 2.406zm3.746-6.502l-3.622 3.946 2.947 2.705 3.622-3.946-2.947-2.705zm-.158 3.353h1.632v-4H32.37v4zm-1.926 3.041l3.396-3.686-2.941-2.71-3.396 3.686 2.941 2.71zm-1.922.645h.451v-4h-.451v4zm-2-5.686v3.686h4v-3.686h-4zm.683 2h1.317v-4h-1.317v4zm2 6.727v-8.727h-4V20h4zm-.683-2h-1.317v4h1.317v-4zm-2-1.912V20h4v-3.912h-4zm2.903-2h-.903v4h.903v-4zm4.546 4.708l-2.949-3.912-3.194 2.408 2.949 3.912 3.194-2.408zM35.106 18h-.41v4h.41v-4zm.056-1.316a7 7 0 01-.122 1.095c-.057.266-.113.372-.124.39-.002.004.01-.016.041-.047a.536.536 0 01.123-.09c.099-.052.136-.032.026-.032v4c.603 0 1.24-.112 1.843-.43a3.572 3.572 0 001.394-1.337c.593-.985.76-2.22.814-3.36l-3.995-.189zm.102-2.222l-.102 2.225 3.995.183.103-2.224-3.996-.184zm4.137-1.908h-2.14v4h2.14v-4zm2 7.446v-5.446h-4V20h4zm-.752-2h-1.248v4h1.248v-4zm-2-4.545V20h4v-6.545h-4zm-2.568 2h4.569v-4H36.08v4zm1.884.977l.115-2.898-3.997-.159-.115 2.898 3.997.159zm-3.039 4.465c.414 0 .986-.074 1.542-.432a2.817 2.817 0 001.07-1.318c.314-.762.388-1.75.427-2.714l-3.997-.16c-.02.479-.046.82-.078 1.065-.035.26-.065.319-.049.279.026-.063.148-.314.461-.515.306-.197.575-.206.624-.206v4zm-.234 0h.234v-4h-.234v4zm2.004-.905l-.004-1.103-4 .015.004 1.104 4-.016zm4.901-6.537v4.76h4v-4.76h-4zm.752 2h1.248v-4H42.35v4zm2 4.545v-6.545h-4V20h4zm-.615-2h-1.385v4h1.385v-4zm1.159-3.797l-2.872 4.765 3.425 2.065 2.873-4.765-3.426-2.065zM48.606 20v-4.764h-4V20h4zm-.752-2h-1.248v4h1.248v-4zm-2-4.545V20h4v-6.545h-4zm.628 2h1.372v-4h-1.372v4zm-1.174 3.796l2.885-4.76-3.421-2.073-2.885 4.76 3.42 2.073zm5.5-1.25h-1.24v4h1.24v-4zm-2-3.447V20h4v-5.446h-4zm4.85-2h-2.85v4h2.85v-4zm2 7.446v-5.446h-4V20h4zm-.751-2h-1.249v4h1.249v-4zm-2-4.545V20h4v-6.545h-4zm-3.34 2h5.34v-4h-5.34v4zm2 4.545v-6.545h-4V20h4z" fill="#fff" mask="url(#a)"/></svg>